<svg width="76" height="18" viewBox="0 0 76 18" fill="none" xmlns="http://www.w3.org/2000/svg">
<g clip-path="url(#clip0_1612_265)">
<mask id="path-1-outside-1_1612_265" maskUnits="userSpaceOnUse" x="-0.947754" y="1.34351" width="18" height="17" fill="black">
<rect fill="white" x="-0.947754" y="1.34351" width="18" height="17"/>
<path fill-rule="evenodd" clip-rule="evenodd" d="M15.5673 2.76334L15.6621 3.33596C15.7367 3.86865 15.7713 4.4062 15.7655 4.94408C15.7649 6.13271 15.6215 7.31693 15.3384 8.47136C14.9556 10.0397 14.2888 11.5247 13.3711 12.8529C12.3106 14.3782 10.7771 15.8785 8.54198 17.0839L8.26852 17.2313L7.9951 17.0839C5.75995 15.8785 4.22717 14.3782 3.16602 12.8529C2.24828 11.5247 1.58149 10.0397 1.19865 8.47136C0.915628 7.31716 0.772236 6.13312 0.771556 4.94471C0.765778 4.40683 0.80037 3.86928 0.875038 3.33659L0.969736 2.76396C0.977818 2.71727 0.976581 2.66943 0.966096 2.62321C0.955611 2.57699 0.936081 2.53331 0.908631 2.49467C0.881185 2.45603 0.846364 2.42321 0.806175 2.3981C0.765985 2.37298 0.721224 2.35606 0.674469 2.34833C0.627714 2.34059 0.579892 2.34218 0.533754 2.35301C0.487615 2.36384 0.444079 2.3837 0.40565 2.41143C0.36722 2.43916 0.334659 2.47423 0.309842 2.5146C0.285026 2.55498 0.268444 2.59987 0.261054 2.64668L0.166354 3.2193C0.0848987 3.79073 0.0469515 4.36752 0.0528393 4.94471C0.0532907 6.19166 0.203632 7.43402 0.500625 8.64511C0.904905 10.2989 1.60869 11.8647 2.57713 13.2649C3.6966 14.8762 5.3203 16.4605 7.65706 17.718L8.10107 17.9569C8.15341 17.9852 8.21191 18 8.27135 18C8.3308 18 8.38934 17.9852 8.44163 17.9569L8.88502 17.718C11.2193 16.4599 12.8436 14.8762 13.965 13.2649C14.9329 11.8648 15.6363 10.2993 16.0402 8.64574C16.3372 7.43465 16.4875 6.19229 16.488 4.94534C16.4939 4.36815 16.4559 3.79136 16.3745 3.21993L16.2798 2.64731C16.2724 2.60049 16.2558 2.55561 16.231 2.51523C16.2062 2.47485 16.1736 2.43979 16.1352 2.41206C16.0968 2.38432 16.0532 2.36447 16.0071 2.35364C15.961 2.34281 15.9131 2.34122 15.8664 2.34895C15.8196 2.35669 15.7748 2.3736 15.7346 2.39872C15.6945 2.42384 15.6596 2.45666 15.6322 2.4953C15.6048 2.53393 15.5852 2.57762 15.5748 2.62384C15.5643 2.67006 15.563 2.71789 15.5711 2.76459L15.5673 2.76334Z"/>
</mask>
<path fill-rule="evenodd" clip-rule="evenodd" d="M15.5673 2.76334L15.6621 3.33596C15.7367 3.86865 15.7713 4.4062 15.7655 4.94408C15.7649 6.13271 15.6215 7.31693 15.3384 8.47136C14.9556 10.0397 14.2888 11.5247 13.3711 12.8529C12.3106 14.3782 10.7771 15.8785 8.54198 17.0839L8.26852 17.2313L7.9951 17.0839C5.75995 15.8785 4.22717 14.3782 3.16602 12.8529C2.24828 11.5247 1.58149 10.0397 1.19865 8.47136C0.915628 7.31716 0.772236 6.13312 0.771556 4.94471C0.765778 4.40683 0.80037 3.86928 0.875038 3.33659L0.969736 2.76396C0.977818 2.71727 0.976581 2.66943 0.966096 2.62321C0.955611 2.57699 0.936081 2.53331 0.908631 2.49467C0.881185 2.45603 0.846364 2.42321 0.806175 2.3981C0.765985 2.37298 0.721224 2.35606 0.674469 2.34833C0.627714 2.34059 0.579892 2.34218 0.533754 2.35301C0.487615 2.36384 0.444079 2.3837 0.40565 2.41143C0.36722 2.43916 0.334659 2.47423 0.309842 2.5146C0.285026 2.55498 0.268444 2.59987 0.261054 2.64668L0.166354 3.2193C0.0848987 3.79073 0.0469515 4.36752 0.0528393 4.94471C0.0532907 6.19166 0.203632 7.43402 0.500625 8.64511C0.904905 10.2989 1.60869 11.8647 2.57713 13.2649C3.6966 14.8762 5.3203 16.4605 7.65706 17.718L8.10107 17.9569C8.15341 17.9852 8.21191 18 8.27135 18C8.3308 18 8.38934 17.9852 8.44163 17.9569L8.88502 17.718C11.2193 16.4599 12.8436 14.8762 13.965 13.2649C14.9329 11.8648 15.6363 10.2993 16.0402 8.64574C16.3372 7.43465 16.4875 6.19229 16.488 4.94534C16.4939 4.36815 16.4559 3.79136 16.3745 3.21993L16.2798 2.64731C16.2724 2.60049 16.2558 2.55561 16.231 2.51523C16.2062 2.47485 16.1736 2.43979 16.1352 2.41206C16.0968 2.38432 16.0532 2.36447 16.0071 2.35364C15.961 2.34281 15.9131 2.34122 15.8664 2.34895C15.8196 2.35669 15.7748 2.3736 15.7346 2.39872C15.6945 2.42384 15.6596 2.45666 15.6322 2.4953C15.6048 2.53393 15.5852 2.57762 15.5748 2.62384C15.5643 2.67006 15.563 2.71789 15.5711 2.76459L15.5673 2.76334Z" fill="#163B56"/>
<path fill-rule="evenodd" clip-rule="evenodd" d="M15.5673 2.76334L15.6621 3.33596C15.7367 3.86865 15.7713 4.4062 15.7655 4.94408C15.7649 6.13271 15.6215 7.31693 15.3384 8.47136C14.9556 10.0397 14.2888 11.5247 13.3711 12.8529C12.3106 14.3782 10.7771 15.8785 8.54198 17.0839L8.26852 17.2313L7.9951 17.0839C5.75995 15.8785 4.22717 14.3782 3.16602 12.8529C2.24828 11.5247 1.58149 10.0397 1.19865 8.47136C0.915628 7.31716 0.772236 6.13312 0.771556 4.94471C0.765778 4.40683 0.80037 3.86928 0.875038 3.33659L0.969736 2.76396C0.977818 2.71727 0.976581 2.66943 0.966096 2.62321C0.955611 2.57699 0.936081 2.53331 0.908631 2.49467C0.881185 2.45603 0.846364 2.42321 0.806175 2.3981C0.765985 2.37298 0.721224 2.35606 0.674469 2.34833C0.627714 2.34059 0.579892 2.34218 0.533754 2.35301C0.487615 2.36384 0.444079 2.3837 0.40565 2.41143C0.36722 2.43916 0.334659 2.47423 0.309842 2.5146C0.285026 2.55498 0.268444 2.59987 0.261054 2.64668L0.166354 3.2193C0.0848987 3.79073 0.0469515 4.36752 0.0528393 4.94471C0.0532907 6.19166 0.203632 7.43402 0.500625 8.64511C0.904905 10.2989 1.60869 11.8647 2.57713 13.2649C3.6966 14.8762 5.3203 16.4605 7.65706 17.718L8.10107 17.9569C8.15341 17.9852 8.21191 18 8.27135 18C8.3308 18 8.38934 17.9852 8.44163 17.9569L8.88502 17.718C11.2193 16.4599 12.8436 14.8762 13.965 13.2649C14.9329 11.8648 15.6363 10.2993 16.0402 8.64574C16.3372 7.43465 16.4875 6.19229 16.488 4.94534C16.4939 4.36815 16.4559 3.79136 16.3745 3.21993L16.2798 2.64731C16.2724 2.60049 16.2558 2.55561 16.231 2.51523C16.2062 2.47485 16.1736 2.43979 16.1352 2.41206C16.0968 2.38432 16.0532 2.36447 16.0071 2.35364C15.961 2.34281 15.9131 2.34122 15.8664 2.34895C15.8196 2.35669 15.7748 2.3736 15.7346 2.39872C15.6945 2.42384 15.6596 2.45666 15.6322 2.4953C15.6048 2.53393 15.5852 2.57762 15.5748 2.62384C15.5643 2.67006 15.563 2.71789 15.5711 2.76459L15.5673 2.76334Z" stroke="#163B56" stroke-width="0.3" mask="url(#path-1-outside-1_1612_265)"/>
<mask id="path-2-outside-2_1612_265" maskUnits="userSpaceOnUse" x="1.46484" y="-0.994995" width="13" height="4" fill="black">
<rect fill="white" x="1.46484" y="-0.994995" width="13" height="4"/>
<path fill-rule="evenodd" clip-rule="evenodd" d="M2.93218 2.37325L8.26942 0.742577L13.7258 2.40837C13.8172 2.43568 13.9156 2.42569 13.9996 2.38059C14.0836 2.33549 14.1463 2.25895 14.174 2.16771C14.2017 2.07648 14.1921 1.97799 14.1474 1.8938C14.1027 1.8096 14.0264 1.74656 13.9353 1.71847L8.37413 0.0206925C8.30591 -0.000224308 8.23292 -0.000224308 8.16466 0.0206925L2.72208 1.6821C2.6766 1.6957 2.63425 1.71814 2.59746 1.74815C2.56068 1.77816 2.53019 1.81513 2.50773 1.85696C2.48527 1.89878 2.4713 1.94463 2.46661 1.99187C2.46192 2.03911 2.4666 2.08681 2.4804 2.13223C2.49419 2.17766 2.51681 2.21991 2.54698 2.25657C2.57714 2.29322 2.61425 2.32356 2.65617 2.34584C2.69809 2.36811 2.744 2.38189 2.79125 2.38638C2.83851 2.39087 2.88619 2.38598 2.93156 2.372L2.93218 2.37325Z"/>
</mask>
<path fill-rule="evenodd" clip-rule="evenodd" d="M2.93218 2.37325L8.26942 0.742577L13.7258 2.40837C13.8172 2.43568 13.9156 2.42569 13.9996 2.38059C14.0836 2.33549 14.1463 2.25895 14.174 2.16771C14.2017 2.07648 14.1921 1.97799 14.1474 1.8938C14.1027 1.8096 14.0264 1.74656 13.9353 1.71847L8.37413 0.0206925C8.30591 -0.000224308 8.23292 -0.000224308 8.16466 0.0206925L2.72208 1.6821C2.6766 1.6957 2.63425 1.71814 2.59746 1.74815C2.56068 1.77816 2.53019 1.81513 2.50773 1.85696C2.48527 1.89878 2.4713 1.94463 2.46661 1.99187C2.46192 2.03911 2.4666 2.08681 2.4804 2.13223C2.49419 2.17766 2.51681 2.21991 2.54698 2.25657C2.57714 2.29322 2.61425 2.32356 2.65617 2.34584C2.69809 2.36811 2.744 2.38189 2.79125 2.38638C2.83851 2.39087 2.88619 2.38598 2.93156 2.372L2.93218 2.37325Z" fill="#163B56"/>
<path fill-rule="evenodd" clip-rule="evenodd" d="M2.93218 2.37325L8.26942 0.742577L13.7258 2.40837C13.8172 2.43568 13.9156 2.42569 13.9996 2.38059C14.0836 2.33549 14.1463 2.25895 14.174 2.16771C14.2017 2.07648 14.1921 1.97799 14.1474 1.8938C14.1027 1.8096 14.0264 1.74656 13.9353 1.71847L8.37413 0.0206925C8.30591 -0.000224308 8.23292 -0.000224308 8.16466 0.0206925L2.72208 1.6821C2.6766 1.6957 2.63425 1.71814 2.59746 1.74815C2.56068 1.77816 2.53019 1.81513 2.50773 1.85696C2.48527 1.89878 2.4713 1.94463 2.46661 1.99187C2.46192 2.03911 2.4666 2.08681 2.4804 2.13223C2.49419 2.17766 2.51681 2.21991 2.54698 2.25657C2.57714 2.29322 2.61425 2.32356 2.65617 2.34584C2.69809 2.36811 2.744 2.38189 2.79125 2.38638C2.83851 2.39087 2.88619 2.38598 2.93156 2.372L2.93218 2.37325Z" stroke="#163B56" stroke-width="0.3" mask="url(#path-2-outside-2_1612_265)"/>
<mask id="path-3-outside-3_1612_265" maskUnits="userSpaceOnUse" x="-0.744629" y="1.34094" width="18" height="17" fill="black">
<rect fill="white" x="-0.744629" y="1.34094" width="18" height="17"/>
<path fill-rule="evenodd" clip-rule="evenodd" d="M0.296803 2.8687L7.94857 17.8033C7.97841 17.8616 8.02368 17.9107 8.07943 17.9452C8.13519 17.9796 8.19931 17.9982 8.26488 17.9988C8.3304 17.9993 8.39484 17.982 8.45122 17.9485C8.50756 17.915 8.55369 17.8667 8.58456 17.8089L13.2509 9.0816L13.2578 9.06783L16.2445 2.85867C16.285 2.77298 16.29 2.67478 16.2585 2.58541C16.227 2.49604 16.1614 2.42272 16.0761 2.3814C15.9908 2.34008 15.8927 2.33409 15.803 2.36474C15.7133 2.39539 15.6394 2.4602 15.5972 2.54507L12.6155 8.74919L8.2791 16.865L0.935913 2.54005C0.91475 2.49753 0.88536 2.45961 0.849437 2.42852C0.813518 2.39743 0.771785 2.37378 0.726654 2.35893C0.681528 2.34408 0.633905 2.33834 0.586538 2.34203C0.539175 2.34572 0.493014 2.35878 0.450732 2.38044C0.408448 2.40209 0.370885 2.43193 0.340215 2.46821C0.309546 2.50449 0.286382 2.5465 0.272065 2.5918C0.257748 2.6371 0.252562 2.68478 0.256808 2.7321C0.261055 2.77942 0.274649 2.82542 0.296803 2.86745V2.8687Z"/>
</mask>
<path fill-rule="evenodd" clip-rule="evenodd" d="M0.296803 2.8687L7.94857 17.8033C7.97841 17.8616 8.02368 17.9107 8.07943 17.9452C8.13519 17.9796 8.19931 17.9982 8.26488 17.9988C8.3304 17.9993 8.39484 17.982 8.45122 17.9485C8.50756 17.915 8.55369 17.8667 8.58456 17.8089L13.2509 9.0816L13.2578 9.06783L16.2445 2.85867C16.285 2.77298 16.29 2.67478 16.2585 2.58541C16.227 2.49604 16.1614 2.42272 16.0761 2.3814C15.9908 2.34008 15.8927 2.33409 15.803 2.36474C15.7133 2.39539 15.6394 2.4602 15.5972 2.54507L12.6155 8.74919L8.2791 16.865L0.935913 2.54005C0.91475 2.49753 0.88536 2.45961 0.849437 2.42852C0.813518 2.39743 0.771785 2.37378 0.726654 2.35893C0.681528 2.34408 0.633905 2.33834 0.586538 2.34203C0.539175 2.34572 0.493014 2.35878 0.450732 2.38044C0.408448 2.40209 0.370885 2.43193 0.340215 2.46821C0.309546 2.50449 0.286382 2.5465 0.272065 2.5918C0.257748 2.6371 0.252562 2.68478 0.256808 2.7321C0.261055 2.77942 0.274649 2.82542 0.296803 2.86745V2.8687Z" fill="#163B56"/>
<path fill-rule="evenodd" clip-rule="evenodd" d="M0.296803 2.8687L7.94857 17.8033C7.97841 17.8616 8.02368 17.9107 8.07943 17.9452C8.13519 17.9796 8.19931 17.9982 8.26488 17.9988C8.3304 17.9993 8.39484 17.982 8.45122 17.9485C8.50756 17.915 8.55369 17.8667 8.58456 17.8089L13.2509 9.0816L13.2578 9.06783L16.2445 2.85867C16.285 2.77298 16.29 2.67478 16.2585 2.58541C16.227 2.49604 16.1614 2.42272 16.0761 2.3814C15.9908 2.34008 15.8927 2.33409 15.803 2.36474C15.7133 2.39539 15.6394 2.4602 15.5972 2.54507L12.6155 8.74919L8.2791 16.865L0.935913 2.54005C0.91475 2.49753 0.88536 2.45961 0.849437 2.42852C0.813518 2.39743 0.771785 2.37378 0.726654 2.35893C0.681528 2.34408 0.633905 2.33834 0.586538 2.34203C0.539175 2.34572 0.493014 2.35878 0.450732 2.38044C0.408448 2.40209 0.370885 2.43193 0.340215 2.46821C0.309546 2.50449 0.286382 2.5465 0.272065 2.5918C0.257748 2.6371 0.252562 2.68478 0.256808 2.7321C0.261055 2.77942 0.274649 2.82542 0.296803 2.86745V2.8687Z" stroke="#163B56" stroke-width="0.3" mask="url(#path-3-outside-3_1612_265)"/>
<mask id="path-4-outside-4_1612_265" maskUnits="userSpaceOnUse" x="2.60059" y="4.67139" width="36" height="8" fill="black">
<rect fill="white" x="2.60059" y="4.67139" width="36" height="8"/>
<path fill-rule="evenodd" clip-rule="evenodd" d="M3.95965 9.51974H12.4686C12.5638 9.51974 12.6551 9.48194 12.7225 9.41458C12.7898 9.34726 12.8276 9.25595 12.8276 9.16069C12.8276 9.06547 12.7898 8.97416 12.7225 8.9068C12.6551 8.83948 12.5638 8.80163 12.4686 8.80163H3.95965C3.86442 8.80163 3.77309 8.83948 3.70575 8.9068C3.63842 8.97416 3.60059 9.06547 3.60059 9.16069C3.60059 9.25595 3.63842 9.34726 3.70575 9.41458C3.77309 9.48194 3.86442 9.51974 3.95965 9.51974ZM27.6933 6.42149H22.1579C22.0622 6.42199 21.9706 6.46024 21.9029 6.52787C21.8353 6.59551 21.7971 6.68708 21.7966 6.78275V11.2257C21.7972 11.3213 21.8355 11.4128 21.9031 11.4804C21.9707 11.548 22.0622 11.5863 22.1579 11.587H27.6933V12.3395H22.1579C22.0118 12.3402 21.8671 12.3119 21.732 12.2564C21.5969 12.2008 21.4742 12.119 21.3709 12.0157C21.2677 11.9124 21.1859 11.7897 21.1303 11.6547C21.0747 11.5196 21.0464 11.3749 21.0471 11.2288V6.7859C21.0464 6.63983 21.0747 6.49511 21.1303 6.36007C21.1859 6.22498 21.2677 6.10226 21.3709 5.99899C21.4742 5.89571 21.5969 5.81395 21.732 5.75837C21.8671 5.70275 22.0118 5.67449 22.1579 5.67517H27.6933V6.42149ZM38.0875 5.67139V6.42401H32.7565V8.62352H37.0414V9.3824H32.7559V11.5857H38.0869V12.3383H32.0033V5.67139H38.0875Z"/>
</mask>
<path fill-rule="evenodd" clip-rule="evenodd" d="M3.95965 9.51974H12.4686C12.5638 9.51974 12.6551 9.48194 12.7225 9.41458C12.7898 9.34726 12.8276 9.25595 12.8276 9.16069C12.8276 9.06547 12.7898 8.97416 12.7225 8.9068C12.6551 8.83948 12.5638 8.80163 12.4686 8.80163H3.95965C3.86442 8.80163 3.77309 8.83948 3.70575 8.9068C3.63842 8.97416 3.60059 9.06547 3.60059 9.16069C3.60059 9.25595 3.63842 9.34726 3.70575 9.41458C3.77309 9.48194 3.86442 9.51974 3.95965 9.51974ZM27.6933 6.42149H22.1579C22.0622 6.42199 21.9706 6.46024 21.9029 6.52787C21.8353 6.59551 21.7971 6.68708 21.7966 6.78275V11.2257C21.7972 11.3213 21.8355 11.4128 21.9031 11.4804C21.9707 11.548 22.0622 11.5863 22.1579 11.587H27.6933V12.3395H22.1579C22.0118 12.3402 21.8671 12.3119 21.732 12.2564C21.5969 12.2008 21.4742 12.119 21.3709 12.0157C21.2677 11.9124 21.1859 11.7897 21.1303 11.6547C21.0747 11.5196 21.0464 11.3749 21.0471 11.2288V6.7859C21.0464 6.63983 21.0747 6.49511 21.1303 6.36007C21.1859 6.22498 21.2677 6.10226 21.3709 5.99899C21.4742 5.89571 21.5969 5.81395 21.732 5.75837C21.8671 5.70275 22.0118 5.67449 22.1579 5.67517H27.6933V6.42149ZM38.0875 5.67139V6.42401H32.7565V8.62352H37.0414V9.3824H32.7559V11.5857H38.0869V12.3383H32.0033V5.67139H38.0875Z" fill="#163B56"/>
<path fill-rule="evenodd" clip-rule="evenodd" d="M3.95965 9.51974H12.4686C12.5638 9.51974 12.6551 9.48194 12.7225 9.41458C12.7898 9.34726 12.8276 9.25595 12.8276 9.16069C12.8276 9.06547 12.7898 8.97416 12.7225 8.9068C12.6551 8.83948 12.5638 8.80163 12.4686 8.80163H3.95965C3.86442 8.80163 3.77309 8.83948 3.70575 8.9068C3.63842 8.97416 3.60059 9.06547 3.60059 9.16069C3.60059 9.25595 3.63842 9.34726 3.70575 9.41458C3.77309 9.48194 3.86442 9.51974 3.95965 9.51974ZM27.6933 6.42149H22.1579C22.0622 6.42199 21.9706 6.46024 21.9029 6.52787C21.8353 6.59551 21.7971 6.68708 21.7966 6.78275V11.2257C21.7972 11.3213 21.8355 11.4128 21.9031 11.4804C21.9707 11.548 22.0622 11.5863 22.1579 11.587H27.6933V12.3395H22.1579C22.0118 12.3402 21.8671 12.3119 21.732 12.2564C21.5969 12.2008 21.4742 12.119 21.3709 12.0157C21.2677 11.9124 21.1859 11.7897 21.1303 11.6547C21.0747 11.5196 21.0464 11.3749 21.0471 11.2288V6.7859C21.0464 6.63983 21.0747 6.49511 21.1303 6.36007C21.1859 6.22498 21.2677 6.10226 21.3709 5.99899C21.4742 5.89571 21.5969 5.81395 21.732 5.75837C21.8671 5.70275 22.0118 5.67449 22.1579 5.67517H27.6933V6.42149ZM38.0875 5.67139V6.42401H32.7565V8.62352H37.0414V9.3824H32.7559V11.5857H38.0869V12.3383H32.0033V5.67139H38.0875Z" stroke="#163B56" stroke-width="0.3" mask="url(#path-4-outside-4_1612_265)"/>
<mask id="path-5-outside-5_1612_265" maskUnits="userSpaceOnUse" x="41.395" y="4.68079" width="8" height="8" fill="black">
<rect fill="white" x="41.395" y="4.68079" width="8" height="8"/>
<path d="M49.065 6.79153V8.74458C49.0659 8.8906 49.0375 9.03528 48.9817 9.17032C48.9259 9.30532 48.8445 9.42804 48.741 9.53127C48.6379 9.63454 48.5151 9.7163 48.3801 9.77192C48.2451 9.82755 48.1002 9.8559 47.9544 9.85531H46.9365L49.0281 12.3358H48.0376L45.955 9.85531H43.5089C43.3879 9.84915 43.2673 9.83681 43.1476 9.81832V12.3358H42.395V5.6808H47.9485C48.0948 5.68021 48.2392 5.70856 48.3742 5.76418C48.5097 5.8198 48.6321 5.90156 48.7356 6.00484C48.8386 6.10811 48.9205 6.23078 48.9759 6.36578C49.0317 6.50083 49.06 6.64551 49.0596 6.79153H49.065ZM43.5114 9.09643H47.9544C48.0007 9.09701 48.0466 9.08833 48.0898 9.07083C48.1326 9.05337 48.1717 9.02749 48.2046 8.99468C48.2374 8.96188 48.2631 8.92287 48.2806 8.87994C48.2982 8.83696 48.3067 8.79093 48.3063 8.74458V6.79153C48.3067 6.74451 48.2982 6.69775 48.2811 6.65405C48.2635 6.61036 48.2374 6.57053 48.2046 6.53692C48.1726 6.50249 48.1339 6.47518 48.0907 6.45682C48.0475 6.43841 48.0007 6.42941 47.9539 6.43027H43.5108C43.4151 6.43076 43.3235 6.46901 43.2559 6.53665C43.1882 6.60428 43.15 6.6959 43.1495 6.79153V8.74458C43.1485 8.79156 43.1575 8.83818 43.1759 8.88142C43.1943 8.92467 43.2217 8.96354 43.2561 8.99545C43.2898 9.02839 43.3298 9.05431 43.3736 9.07163C43.4174 9.089 43.4643 9.09742 43.5114 9.09643Z"/>
</mask>
<path d="M49.065 6.79153V8.74458C49.0659 8.8906 49.0375 9.03528 48.9817 9.17032C48.9259 9.30532 48.8445 9.42804 48.741 9.53127C48.6379 9.63454 48.5151 9.7163 48.3801 9.77192C48.2451 9.82755 48.1002 9.8559 47.9544 9.85531H46.9365L49.0281 12.3358H48.0376L45.955 9.85531H43.5089C43.3879 9.84915 43.2673 9.83681 43.1476 9.81832V12.3358H42.395V5.6808H47.9485C48.0948 5.68021 48.2392 5.70856 48.3742 5.76418C48.5097 5.8198 48.6321 5.90156 48.7356 6.00484C48.8386 6.10811 48.9205 6.23078 48.9759 6.36578C49.0317 6.50083 49.06 6.64551 49.0596 6.79153H49.065ZM43.5114 9.09643H47.9544C48.0007 9.09701 48.0466 9.08833 48.0898 9.07083C48.1326 9.05337 48.1717 9.02749 48.2046 8.99468C48.2374 8.96188 48.2631 8.92287 48.2806 8.87994C48.2982 8.83696 48.3067 8.79093 48.3063 8.74458V6.79153C48.3067 6.74451 48.2982 6.69775 48.2811 6.65405C48.2635 6.61036 48.2374 6.57053 48.2046 6.53692C48.1726 6.50249 48.1339 6.47518 48.0907 6.45682C48.0475 6.43841 48.0007 6.42941 47.9539 6.43027H43.5108C43.4151 6.43076 43.3235 6.46901 43.2559 6.53665C43.1882 6.60428 43.15 6.6959 43.1495 6.79153V8.74458C43.1485 8.79156 43.1575 8.83818 43.1759 8.88142C43.1943 8.92467 43.2217 8.96354 43.2561 8.99545C43.2898 9.02839 43.3298 9.05431 43.3736 9.07163C43.4174 9.089 43.4643 9.09742 43.5114 9.09643Z" fill="#163B56"/>
<path d="M49.065 6.79153V8.74458C49.0659 8.8906 49.0375 9.03528 48.9817 9.17032C48.9259 9.30532 48.8445 9.42804 48.741 9.53127C48.6379 9.63454 48.5151 9.7163 48.3801 9.77192C48.2451 9.82755 48.1002 9.8559 47.9544 9.85531H46.9365L49.0281 12.3358H48.0376L45.955 9.85531H43.5089C43.3879 9.84915 43.2673 9.83681 43.1476 9.81832V12.3358H42.395V5.6808H47.9485C48.0948 5.68021 48.2392 5.70856 48.3742 5.76418C48.5097 5.8198 48.6321 5.90156 48.7356 6.00484C48.8386 6.10811 48.9205 6.23078 48.9759 6.36578C49.0317 6.50083 49.06 6.64551 49.0596 6.79153H49.065ZM43.5114 9.09643H47.9544C48.0007 9.09701 48.0466 9.08833 48.0898 9.07083C48.1326 9.05337 48.1717 9.02749 48.2046 8.99468C48.2374 8.96188 48.2631 8.92287 48.2806 8.87994C48.2982 8.83696 48.3067 8.79093 48.3063 8.74458V6.79153C48.3067 6.74451 48.2982 6.69775 48.2811 6.65405C48.2635 6.61036 48.2374 6.57053 48.2046 6.53692C48.1726 6.50249 48.1339 6.47518 48.0907 6.45682C48.0475 6.43841 48.0007 6.42941 47.9539 6.43027H43.5108C43.4151 6.43076 43.3235 6.46901 43.2559 6.53665C43.1882 6.60428 43.15 6.6959 43.1495 6.79153V8.74458C43.1485 8.79156 43.1575 8.83818 43.1759 8.88142C43.1943 8.92467 43.2217 8.96354 43.2561 8.99545C43.2898 9.02839 43.3298 9.05431 43.3736 9.07163C43.4174 9.089 43.4643 9.09742 43.5114 9.09643Z" stroke="#163B56" stroke-width="0.3" mask="url(#path-5-outside-5_1612_265)"/>
<mask id="path-6-outside-6_1612_265" maskUnits="userSpaceOnUse" x="52.0459" y="4.67139" width="24" height="8" fill="black">
<rect fill="white" x="52.0459" y="4.67139" width="24" height="8"/>
<path fill-rule="evenodd" clip-rule="evenodd" d="M53.0459 5.67139H59.7077V6.42401H56.7602V12.3389H56.0073V6.42401H53.0459V5.67139ZM63.7456 12.3358V5.67139H64.4984V12.3358H63.7456ZM74.501 5.67139H75.464L72.678 9.00359L75.473 12.3358H74.501L72.0206 9.38303H69.8732V12.3358H69.1154V5.67139H69.8746V8.62352H72.022L74.501 5.67139Z"/>
</mask>
<path fill-rule="evenodd" clip-rule="evenodd" d="M53.0459 5.67139H59.7077V6.42401H56.7602V12.3389H56.0073V6.42401H53.0459V5.67139ZM63.7456 12.3358V5.67139H64.4984V12.3358H63.7456ZM74.501 5.67139H75.464L72.678 9.00359L75.473 12.3358H74.501L72.0206 9.38303H69.8732V12.3358H69.1154V5.67139H69.8746V8.62352H72.022L74.501 5.67139Z" fill="#163B56"/>
<path fill-rule="evenodd" clip-rule="evenodd" d="M53.0459 5.67139H59.7077V6.42401H56.7602V12.3389H56.0073V6.42401H53.0459V5.67139ZM63.7456 12.3358V5.67139H64.4984V12.3358H63.7456ZM74.501 5.67139H75.464L72.678 9.00359L75.473 12.3358H74.501L72.0206 9.38303H69.8732V12.3358H69.1154V5.67139H69.8746V8.62352H72.022L74.501 5.67139Z" stroke="#163B56" stroke-width="0.3" mask="url(#path-6-outside-6_1612_265)"/>
</g>
<defs>
<clipPath id="clip0_1612_265">
<rect width="75.6" height="18" fill="white"/>
</clipPath>
</defs>
</svg>
