<svg width="124" height="40" viewBox="0 0 124 40" fill="none" xmlns="http://www.w3.org/2000/svg">
<path d="M74.915 31.5656L75.0679 8.64721C77.9236 8.52875 80.7278 8.39449 83.5359 8.30762C84.2002 8.31859 84.8622 8.38997 85.5135 8.52085C88.0488 8.91572 89.6031 10.4202 90.1055 12.896C90.7285 15.8014 90.669 18.8113 89.9314 21.6898C89.1404 24.7738 87.3052 26.1756 84.1173 26.3059C83.9196 26.3059 83.7218 26.3059 83.5241 26.3059C81.3646 26.3414 81.3487 26.3414 81.4713 28.5408C81.5267 29.4491 81.5083 30.535 81.623 31.5656H74.915ZM81.5742 20.6592C81.5742 20.8998 81.6635 21.5977 82.5592 21.5977C83.4549 21.5977 83.5365 20.9631 83.5365 20.6592C83.5365 20.3553 83.5715 16.6631 83.4924 14.5821C83.4924 14.2978 83.1555 13.8363 82.5309 13.8363C81.9063 13.8363 81.623 14.2576 81.623 14.5821C81.5742 15.6613 81.5742 20.4186 81.5742 20.6592Z" fill="#2A3D4A"/>
<path d="M93.252 31.5656L93.4049 8.64721C96.2605 8.52875 99.0647 8.39449 101.873 8.30762C102.537 8.31859 103.199 8.38997 103.85 8.52085C106.386 8.91572 107.94 10.4202 108.442 12.896C109.065 15.8014 109.006 18.8113 108.268 21.6898C107.477 24.7738 105.642 26.1756 102.454 26.3059C102.256 26.3059 102.059 26.3059 101.861 26.3059C99.7015 26.3414 99.6856 26.3414 99.8083 28.5408C99.8636 29.4491 99.8452 30.535 99.9599 31.5656H93.252ZM99.9111 20.6592C99.9111 20.8998 100 21.5977 100.896 21.5977C101.792 21.5977 101.873 20.9631 101.873 20.6592C101.873 20.3553 101.908 16.6631 101.829 14.5821C101.829 14.2978 101.492 13.8363 100.868 13.8363C100.243 13.8363 99.9599 14.2576 99.9599 14.5821C99.9111 15.6613 99.9111 20.4186 99.9111 20.6592Z" fill="#2A3D4A"/>
<path d="M5 31.2797C5.12825 30.0951 5.26064 29.0131 5.35166 27.9391C5.44268 26.865 5.5006 25.791 5.55439 24.9775C7.38717 25.1552 9.17031 25.3724 10.9659 25.4909C11.5409 25.5304 12.3187 25.4001 12.2525 24.7011C12.2153 24.3063 11.6568 23.8166 11.21 23.5718C10.5564 23.2818 9.87824 23.0453 9.18272 22.865C7.06861 22.1266 5.67023 20.6734 5.41372 18.5727C5.17912 16.75 5.17912 14.9067 5.41372 13.084C5.75711 10.6516 7.34166 9.05237 9.9357 8.57852C12.678 8.0823 15.5081 8.26999 18.1522 9.12344C17.8585 11.3742 17.573 13.5421 17.2875 15.7494C16.3153 15.6033 15.281 15.4059 14.2384 15.3071C13.5904 15.2273 12.933 15.2527 12.2939 15.3822C11.905 15.473 11.3754 15.8679 11.3341 16.1719C11.3739 16.6015 11.6239 16.9879 12.0084 17.2144C12.6577 17.5142 13.3368 17.751 14.0357 17.9212C17.2131 18.9123 18.2763 20.1522 18.417 23.3467C18.4962 24.7219 18.4213 26.1013 18.1936 27.4613C17.7013 30.178 16.3318 31.41 13.473 31.7693C10.6432 32.1575 7.76011 31.9909 5 31.2797Z" fill="#2A3D4A"/>
<path d="M118.183 31.5656H111.59V8.30762H118.183V31.5656Z" fill="#2A3D4A"/>
<path d="M57.5243 32C57.3539 32 57.1834 31.993 57.0129 31.986C52.8614 31.7914 49.204 29.2341 47.646 25.4365C46.0879 21.6389 46.9139 17.2949 49.7614 14.311C50.7122 13.3267 51.2105 12.0003 51.1393 10.643C51.1322 10.531 51.1322 10.412 51.1322 10.3C51.1324 6.82072 53.9941 4 57.5243 4H57.7161C61.1921 4.14264 63.9313 6.96913 63.9165 10.398C63.9177 10.4541 63.9153 10.5102 63.9094 10.566C63.8602 11.9855 64.3867 13.3659 65.3725 14.402C67.1791 16.3367 68.1806 18.8707 68.1779 21.5C68.1758 27.2981 63.4072 31.9979 57.5243 32Z" fill="#B6DD76"/>
<path fill-rule="evenodd" clip-rule="evenodd" d="M58.9765 12.079C58.7016 13.243 57.9557 14.2471 56.9103 14.8603C55.3504 15.7754 54.0954 17.1156 53.2982 18.7179C53.2586 18.8174 53.2194 18.915 53.1809 19.011C52.7689 20.0378 52.4279 20.8879 52.3554 21.9576C52.2764 23.1227 52.5303 24.5212 52.8351 25.6223C54.1069 29.4866 57.8098 32.0772 61.9488 31.9983C66.0879 31.9194 69.6855 29.1897 70.8032 25.2798C71.4485 23.0559 71.2144 20.675 70.1478 18.613C69.5621 17.506 69.4518 16.2153 69.8414 15.0281C69.8623 14.983 69.879 14.9363 69.8913 14.8883C70.7393 11.9919 69.0991 8.95648 66.1794 8.01884C64.7244 7.56715 63.1448 7.71371 61.8019 8.42498C60.4591 9.13625 59.4678 10.3514 59.0548 11.7925C59.0496 11.8104 59.0444 11.8281 59.0392 11.8457C59.0161 11.9239 58.9939 11.9991 58.9765 12.079ZM65.5288 10.0725C67.3346 10.658 68.3081 12.4933 67.8384 14.2208L67.8306 14.2377L67.7912 14.3575C67.2203 16.0974 67.3813 17.9887 68.2347 19.6087C69.0454 21.1804 69.2215 22.9902 68.731 24.6806L68.7287 24.6887C67.8771 27.6676 65.1205 29.7836 61.9077 29.8448C58.7117 29.9057 55.8848 27.9175 54.9005 24.9974C54.631 24.0085 54.4535 22.9038 54.5078 22.103C54.5565 21.3846 54.7722 20.844 55.2204 19.7207C55.2358 19.6819 55.2516 19.6424 55.2676 19.6021C55.8781 18.4108 56.8251 17.4085 58.0032 16.7174L58.0033 16.7173C59.5495 15.8102 60.6644 14.3175 61.0763 12.5733L61.0804 12.5557L61.0834 12.542C61.084 12.5395 61.0857 12.5331 61.089 12.5218L61.1032 12.4726L61.1264 12.3939L61.1264 12.394L61.129 12.3849C61.3784 11.5146 61.9808 10.7684 62.813 10.3276C63.6435 9.88776 64.6242 9.79456 65.5288 10.0725Z" fill="#22454B"/>
<path d="M66.225 23.1012C66.225 25.5008 64.2772 27.446 61.8744 27.446C61.3478 27.4475 60.8255 27.35 60.335 27.1585C58.3701 26.4175 57.2168 24.3794 57.5948 22.3162C57.9729 20.2529 59.7741 18.7547 61.8744 18.7564C62.2221 18.7542 62.5685 18.7969 62.9052 18.8835C64.854 19.3556 66.2259 21.0986 66.225 23.1012Z" fill="#6D4D42"/>
<path d="M22.0596 8.30762H28.6765C28.7517 9.96608 28.7912 11.6364 28.9099 13.3027C29.0721 15.5614 29.2738 17.8201 29.4953 20.0748C29.5348 20.4697 29.4518 21.0896 30.0806 21.0738C30.7095 21.058 30.6818 20.4657 30.7095 20.0235C30.8084 18.4677 30.8835 16.9119 30.9666 15.3561C31.0022 14.6532 31.0457 13.7766 31.0813 13.0461H34.2098C34.2098 13.3264 34.2414 13.5871 34.2533 13.8358C34.3443 15.9168 34.4273 18.0017 34.5223 20.0827C34.5223 20.446 34.5223 20.8724 35.0364 20.904C35.5506 20.9356 35.6455 20.4894 35.6534 20.1143C35.7246 16.4973 35.7879 12.8815 35.8433 9.26716C35.8433 8.97495 35.8433 8.68275 35.8433 8.31551H43.2787C42.626 15.9139 41.6964 24.0095 41.1846 31.5379L34.0358 31.5221C33.8894 30.0256 33.7391 28.4184 33.573 26.8311C33.5015 26.2913 33.3688 25.7614 33.1775 25.2516C33.0945 25.0186 32.782 24.7066 32.6001 24.7145C32.327 24.7873 32.1086 24.992 32.0187 25.2595C31.755 26.3967 31.5374 27.5405 31.3661 28.6909C31.2276 29.6386 31.1722 30.5981 31.0813 31.5379L23.8513 31.5221L22.0596 8.30762Z" fill="#2A3D4A"/>
</svg>
