<svg width="741" height="758" viewBox="0 0 741 758" fill="none" xmlns="http://www.w3.org/2000/svg"><path d="M3.761 739.595c0-.087.106-.13.166-.068l44.591 45.576a.383.383 0 1 1-.55.533l-44.18-45.974a.097.097 0 0 1-.027-.067zM7.522 704.294l78.926 80.332a.669.669 0 1 1-.96.932L7.522 704.294zM11.283 669.217l113.095 114.919c.594.603.166 1.624-.681 1.624a.955.955 0 0 1-.688-.293L11.283 669.217zM19.03 638.012c.027 0 .051.01.07.029l143.207 145.608c.773.786.216 2.113-.885 2.113-.338 0-.661-.137-.895-.381L18.961 638.176a.097.097 0 0 1 .07-.164zM26.593 606.803l173.644 176.359c.951.965.267 2.599-1.088 2.599-.416 0-.814-.17-1.102-.47L26.593 606.803zM34.114 575.561c0-.087.105-.13.166-.069L238.17 782.678c1.129 1.147.316 3.086-1.293 3.086-.494 0-.966-.201-1.308-.557L34.141 575.628a.096.096 0 0 1-.027-.067zM41.634 544.108l234.463 238.075c1.307 1.327.367 3.573-1.496 3.573a2.098 2.098 0 0 1-1.514-.646L41.634 544.108zM53.184 516.779L314.03 781.708c1.485 1.508.416 4.06-1.7 4.06-.65 0-1.272-.265-1.722-.734L53.184 516.779zM64.466 489.665c0-.086.105-.13.166-.068l287.325 291.614c1.664 1.689.468 4.547-1.903 4.547a2.67 2.67 0 0 1-1.926-.821L64.493 489.733a.097.097 0 0 1-.027-.068zM75.875 462.238a.194.194 0 0 1 .277-.001l313.734 318.495c1.842 1.87.517 5.034-2.108 5.034a2.96 2.96 0 0 1-2.133-.908l-309.77-322.35a.195.195 0 0 1 0-.27zM87.298 434.757l340.52 345.491c2.02 2.05.568 5.519-2.31 5.519-.883 0-1.728-.36-2.34-.997L87.298 434.757zM102.468 411.428a.194.194 0 0 1 .277-.001l362.842 368.175c2.258 2.291.635 6.169-2.582 6.169a3.62 3.62 0 0 1-2.615-1.115L102.467 411.697a.195.195 0 0 1 .001-.269zM113.891 384.176c0-.087.105-.13.166-.068l389.515 395.325c2.318 2.352.652 6.332-2.65 6.332a3.72 3.72 0 0 1-2.684-1.144l-384.32-400.377a.1.1 0 0 1-.027-.068zM129.158 360.747c.026 0 .051.01.07.029l412.11 418.015c2.555 2.592.719 6.98-2.92 6.98a4.1 4.1 0 0 1-2.959-1.262L129.088 360.911a.097.097 0 0 1 .07-.164zM144.239 337.269l435.132 440.873c2.793 2.83.788 7.626-3.188 7.626a4.479 4.479 0 0 1-3.233-1.379l-428.711-447.12zM159.55 313.795l457.646 464.021c2.912 2.952.821 7.952-3.326 7.952a4.672 4.672 0 0 1-3.372-1.439L159.55 313.795zM174.591 290.321l480.532 487.01c3.09 3.131.871 8.437-3.528 8.437a4.958 4.958 0 0 1-3.578-1.527l-473.426-493.92zM193.664 270.945c0-.087.105-.13.166-.068L693.055 776.84c3.269 3.312.922 8.923-3.731 8.923a5.245 5.245 0 0 1-3.785-1.614L193.691 271.013a.1.1 0 0 1-.027-.068zM212.694 251.378c.026 0 .051.01.069.029l518.219 524.949c3.447 3.492.974 9.409-3.933 9.409a5.526 5.526 0 0 1-3.989-1.702L212.624 251.542a.097.097 0 0 1 .07-.164zM230.999 231.209L755.543 762.27a5.71 5.71 0 0 1 1.649 4.015c0 5.15-6.277 7.671-9.84 3.952L230.999 231.209zM250.07 211.611L755.627 723.7a5.427 5.427 0 0 1 1.565 3.813c0 4.893-5.964 7.288-9.348 3.755L250.07 211.611zM269.141 192.277l486.568 492.84a5.144 5.144 0 0 1 1.483 3.614c0 4.635-5.65 6.906-8.858 3.559L269.141 192.277zM291.972 176.537l463.82 470.002a4.858 4.858 0 0 1 1.4 3.412c0 4.378-5.337 6.522-8.366 3.361L291.972 176.537zM310.774 156.932l445.1 451.029a4.576 4.576 0 0 1 1.318 3.212c0 4.122-5.023 6.141-7.875 3.166L310.774 156.932zM333.605 141.456l422.35 427.914a4.285 4.285 0 0 1 1.237 3.013c0 3.864-4.709 5.757-7.385 2.969L333.605 141.456zM356.437 125.72l399.602 405.075a4.002 4.002 0 0 1 1.153 2.811c0 3.607-4.396 5.374-6.892 2.771L356.437 125.72zM379.268 110.262l376.881 382.264a3.626 3.626 0 0 1 1.043 2.544c0 3.264-3.978 4.864-6.238 2.509L379.268 110.262zM405.86 98.38l350.344 355.256c.633.642.988 1.508.988 2.41 0 3.092-3.768 4.607-5.909 2.376L405.86 98.38zM428.691 82.915L756.314 415.36c.562.571.878 1.34.878 2.142 0 2.749-3.35 4.097-5.254 2.114L428.691 82.915zM455.282 71.033l301.115 305.74a2.77 2.77 0 0 1 .795 1.941c0 2.491-3.036 3.713-4.761 1.915L455.282 71.033zM481.874 59.44l274.577 278.732c.475.482.741 1.131.741 1.807 0 2.319-2.826 3.456-4.432 1.782L481.874 59.441zM508.466 47.563l248.069 252.026a2.29 2.29 0 0 1 .657 1.605c0 2.062-2.512 3.072-3.939 1.584L508.466 47.563zM538.818 39.84l217.798 221.178c.369.375.576.88.576 1.405 0 1.804-2.198 2.689-3.448 1.387L538.818 39.84zM565.41 28.232L756.698 222.43c.316.321.494.754.494 1.205 0 1.547-1.885 2.305-2.956 1.19L565.41 28.232zM595.762 20.223L756.781 183.85c.263.267.411.628.411 1.003 0 1.289-1.571 1.921-2.463.991L595.762 20.223zM629.874 16.365l126.989 128.913c.211.214.329.503.329.803 0 1.031-1.256 1.537-1.971.793L629.874 16.364zM660.454 8.63c.026 0 .051.01.069.03l96.422 98.036a.86.86 0 0 1 .247.603c0 .773-.943 1.153-1.479.595l-95.329-99.1a.097.097 0 0 1 .07-.164zM694.607 4.758l62.42 63.352a.572.572 0 1 1-.82.798l-61.6-64.15zM728.72.893l28.389 28.637a.287.287 0 1 1-.41.4L728.72.894z" fill="#fff"/></svg>