<svg width="124" height="40" viewBox="0 0 124 40" fill="none" xmlns="http://www.w3.org/2000/svg">
<path d="M74.9148 31.5656L75.0677 8.64727C77.9233 8.52881 80.7275 8.39455 83.5357 8.30768C84.2 8.31865 84.8619 8.39003 85.5133 8.52091C88.0485 8.91578 89.6029 10.4202 90.1052 12.8961C90.7283 15.8014 90.6687 18.8114 89.9312 21.6899C89.1401 24.7738 87.305 26.1756 84.1171 26.3059C83.9193 26.3059 83.7216 26.3059 83.5238 26.3059C81.3643 26.3415 81.3485 26.3415 81.4711 28.5409C81.5265 29.4491 81.508 30.535 81.6227 31.5656H74.9148ZM81.5739 20.6593C81.5739 20.8999 81.6633 21.5977 82.559 21.5977C83.4546 21.5977 83.5363 20.9631 83.5363 20.6593C83.5363 20.3554 83.5713 16.6632 83.4922 14.5822C83.4922 14.2979 83.1552 13.8364 82.5306 13.8364C81.906 13.8364 81.6227 14.2576 81.6227 14.5822C81.5739 15.6613 81.5739 20.4187 81.5739 20.6593Z" fill="#2A3D4A"/>
<path d="M93.2523 31.5656L93.4052 8.64727C96.2608 8.52881 99.0651 8.39455 101.873 8.30768C102.538 8.31865 103.199 8.39003 103.851 8.52091C106.386 8.91578 107.94 10.4202 108.443 12.8961C109.066 15.8014 109.006 18.8114 108.269 21.6899C107.478 24.7738 105.642 26.1756 102.455 26.3059C102.257 26.3059 102.059 26.3059 101.861 26.3059C99.7018 26.3415 99.686 26.3415 99.8086 28.5409C99.864 29.4491 99.8456 30.535 99.9603 31.5656H93.2523ZM99.9115 20.6593C99.9115 20.8999 100.001 21.5977 100.896 21.5977C101.792 21.5977 101.874 20.9631 101.874 20.6593C101.874 20.3554 101.909 16.6632 101.83 14.5822C101.83 14.2979 101.493 13.8364 100.868 13.8364C100.244 13.8364 99.9603 14.2576 99.9603 14.5822C99.9115 15.6613 99.9115 20.4187 99.9115 20.6593Z" fill="#2A3D4A"/>
<path d="M5 31.2798C5.12825 30.0951 5.26064 29.0132 5.35166 27.9391C5.44268 26.8651 5.5006 25.791 5.55439 24.9776C7.38717 25.1553 9.17031 25.3725 10.9659 25.4909C11.5409 25.5304 12.3187 25.4001 12.2525 24.7012C12.2153 24.3063 11.6568 23.8167 11.21 23.5719C10.5564 23.2818 9.87824 23.0454 9.18272 22.865C7.06861 22.1266 5.67023 20.6735 5.41372 18.5728C5.17912 16.7501 5.17912 14.9068 5.41372 13.0841C5.75711 10.6517 7.34166 9.05243 9.9357 8.57858C12.678 8.08236 15.5081 8.27005 18.1522 9.1235C17.8585 11.3743 17.573 13.5421 17.2875 15.7495C16.3153 15.6034 15.281 15.4059 14.2384 15.3072C13.5904 15.2274 12.933 15.2527 12.2939 15.3822C11.905 15.473 11.3754 15.8679 11.3341 16.172C11.3739 16.6016 11.6239 16.988 12.0084 17.2144C12.6577 17.5143 13.3368 17.7511 14.0357 17.9212C17.2131 18.9124 18.2763 20.1523 18.417 23.3468C18.4962 24.722 18.4213 26.1013 18.1936 27.4614C17.7013 30.1781 16.3318 31.4101 13.473 31.7694C10.6432 32.1576 7.76011 31.991 5 31.2798Z" fill="#2A3D4A"/>
<path d="M118.183 31.5656H111.59V8.30768H118.183V31.5656Z" fill="#2A3D4A"/>
<path d="M57.5243 32C57.3539 32 57.1834 31.993 57.0129 31.986C52.8614 31.7914 49.204 29.2341 47.646 25.4365C46.0879 21.6389 46.9139 17.2949 49.7614 14.311C50.7122 13.3267 51.2105 12.0003 51.1393 10.643C51.1322 10.531 51.1322 10.412 51.1322 10.3C51.1324 6.82072 53.9941 4 57.5243 4H57.7161C61.1921 4.14264 63.9313 6.96913 63.9165 10.398C63.9177 10.4541 63.9153 10.5102 63.9094 10.566C63.8602 11.9855 64.3867 13.3659 65.3725 14.402C67.1791 16.3367 68.1806 18.8707 68.1779 21.5C68.1758 27.2981 63.4072 31.9979 57.5243 32Z" fill="#B6DD76"/>
<path fill-rule="evenodd" clip-rule="evenodd" d="M58.9769 12.079C58.702 13.2429 57.9561 14.247 56.9108 14.8603C55.3508 15.7754 54.0958 17.1156 53.2986 18.7178C53.259 18.8173 53.2198 18.9149 53.1813 19.011C52.7694 20.0378 52.4283 20.8879 52.3558 21.9575C52.2768 23.1226 52.5308 24.5212 52.8355 25.6222C54.1073 29.4866 57.8102 32.0771 61.9493 31.9983C66.0884 31.9194 69.6859 29.1897 70.8036 25.2798C71.4489 23.0559 71.2148 20.675 70.1482 18.613C69.5626 17.506 69.4523 16.2153 69.8418 15.028C69.8627 14.983 69.8794 14.9362 69.8917 14.8883C70.7397 11.9919 69.0996 8.95645 66.1798 8.01881C64.7248 7.56712 63.1452 7.71368 61.8024 8.42495C60.4595 9.13622 59.4682 10.3514 59.0553 11.7925C59.05 11.8104 59.0448 11.8281 59.0396 11.8457C59.0166 11.9239 58.9943 11.9991 58.9769 12.079ZM65.5293 10.0724C67.335 10.658 68.3085 12.4932 67.8388 14.2208L67.831 14.2376L67.7917 14.3575C67.2208 16.0974 67.3817 17.9887 68.2351 19.6087C69.0458 21.1804 69.2219 22.9902 68.7314 24.6805L68.7291 24.6887C67.8775 27.6675 65.1209 29.7836 61.9081 29.8448C58.7121 29.9057 55.8852 27.9175 54.9009 24.9974C54.6314 24.0084 54.454 22.9037 54.5082 22.1029C54.5569 21.3846 54.7726 20.8439 55.2208 19.7206C55.2363 19.6818 55.252 19.6423 55.2681 19.6021C55.8786 18.4108 56.8255 17.4084 58.0036 16.7174L58.0037 16.7173C59.5499 15.8102 60.6648 14.3175 61.0767 12.5732L61.0808 12.5556L61.0838 12.542C61.0845 12.5395 61.0862 12.5331 61.0894 12.5217L61.1037 12.4726L61.1268 12.3939L61.1268 12.3939L61.1294 12.3849C61.3788 11.5145 61.9812 10.7684 62.8134 10.3276C63.6439 9.88773 64.6247 9.79453 65.5293 10.0724Z" fill="#22454B"/>
<path d="M66.225 23.1013C66.225 25.5008 64.2772 27.446 61.8744 27.446C61.3478 27.4476 60.8255 27.35 60.335 27.1586C58.3701 26.4176 57.2168 24.3795 57.5948 22.3162C57.9729 20.253 59.7741 18.7548 61.8744 18.7565C62.2221 18.7543 62.5685 18.797 62.9052 18.8836C64.854 19.3557 66.2259 21.0987 66.225 23.1013Z" fill="#6D4D42"/>
<path d="M22.0595 8.30768H28.6765C28.7516 9.96614 28.7912 11.6364 28.9098 13.3028C29.072 15.5615 29.2737 17.8201 29.4952 20.0749C29.5348 20.4697 29.4517 21.0897 30.0806 21.0739C30.7094 21.0581 30.6818 20.4658 30.7094 20.0235C30.8083 18.4677 30.8835 16.9119 30.9665 15.3561C31.0021 14.6533 31.0456 13.7767 31.0812 13.0461H34.2098C34.2098 13.3265 34.2414 13.5871 34.2533 13.8359C34.3442 15.9169 34.4273 18.0018 34.5222 20.0828C34.5222 20.446 34.5222 20.8725 35.0364 20.9041C35.5505 20.9357 35.6455 20.4895 35.6534 20.1143C35.7246 16.4973 35.7879 12.8816 35.8432 9.26722C35.8432 8.97501 35.8432 8.68281 35.8432 8.31558H43.2787C42.626 15.914 41.6963 24.0096 41.1845 31.538L34.0357 31.5222C33.8894 30.0256 33.7391 28.4185 33.573 26.8311C33.5015 26.2914 33.3688 25.7615 33.1775 25.2516C33.0944 25.0187 32.7819 24.7067 32.6 24.7146C32.3269 24.7874 32.1086 24.992 32.0186 25.2595C31.7549 26.3968 31.5374 27.5406 31.366 28.691C31.2276 29.6387 31.1722 30.5982 31.0812 31.538L23.8512 31.5222L22.0595 8.30768Z" fill="#2A3D4A"/>
</svg>
