<svg
    viewBox="0 0 20 20"
    fill="none"
    xmlns="http://www.w3.org/2000/svg"
    className="w-full fill-current text-ink-green group-hover:text-white"
>
    <path
        fillRule="evenodd"
        clipRule="evenodd"
        d="M15.8308 5.32463V2.85083C15.8309 2.60635 15.7813 2.36467 15.6853 2.14179C15.5893 1.91891 15.4492 1.71993 15.2742 1.55803C15.0993 1.39614 14.8934 1.27502 14.6703 1.20272C14.4472 1.13042 14.212 1.10858 13.9803 1.13865L3.14553 2.54462C2.55169 2.6274 2.00677 2.93315 1.61213 3.405C1.21748 3.87686 0.99995 4.4827 1 5.10986V7.9123V9.63743V13.0876C1 13.3164 1.08681 13.5358 1.24133 13.6976C1.39584 13.8593 1.60541 13.9502 1.82394 13.9502C2.04246 13.9502 2.25203 13.8593 2.40655 13.6976C2.56107 13.5358 2.64787 13.3164 2.64787 13.0876V7.9123C2.64787 7.68353 2.73468 7.46414 2.8892 7.30238C3.04372 7.14062 3.25329 7.04974 3.47181 7.04974H15.0021L15.0069 7.04976L15.0117 7.04974H16.6548C16.8733 7.04974 17.0829 7.14062 17.2374 7.30238C17.3919 7.46414 17.4787 7.68353 17.4787 7.9123V8.77487H14.183C13.3089 8.77487 12.4706 9.13838 11.8526 9.78542C11.2345 10.4325 10.8873 11.31 10.8873 12.2251C10.8873 13.1402 11.2345 14.0177 11.8526 14.6648C12.4706 15.3118 13.3089 15.6753 14.183 15.6753H17.4787V16.5379C17.4787 16.7666 17.3919 16.986 17.2374 17.1478C17.0829 17.3096 16.8733 17.4004 16.6548 17.4004H3.47181C3.25329 17.4004 3.04372 17.3096 2.8892 17.1478C2.73468 16.986 2.64787 16.7666 2.64787 16.5379C2.64787 16.3091 2.56107 16.0897 2.40655 15.928C2.25203 15.7662 2.04246 15.6753 1.82394 15.6753C1.60541 15.6753 1.39584 15.7662 1.24133 15.928C1.08681 16.0897 1 16.3091 1 16.5379C1 17.2242 1.26042 17.8824 1.72398 18.3676C2.18753 18.8529 2.81624 19.1255 3.47181 19.1255H16.6548C16.9794 19.1255 17.3008 19.0586 17.6007 18.9286C17.9006 18.7985 18.1731 18.6079 18.4026 18.3676C18.6321 18.1273 18.8142 17.8421 18.9384 17.5281C19.0627 17.2142 19.1266 16.8777 19.1266 16.5379V14.8183L19.1266 14.8128V9.63743L19.1266 9.63186V7.9123C19.1266 7.57248 19.0627 7.23599 18.9384 6.92204C18.8142 6.60809 18.6321 6.32283 18.4026 6.08254C18.1731 5.84225 17.9006 5.65164 17.6007 5.5216C17.3008 5.39156 16.9794 5.32463 16.6548 5.32463H15.8308ZM14.183 10.5H17.4787V13.9502H14.183C13.9666 13.9502 13.7523 13.9056 13.5523 13.8189C13.3524 13.7323 13.1707 13.6052 13.0177 13.445C12.8646 13.2848 12.7432 13.0946 12.6604 12.8853C12.5776 12.676 12.535 12.4517 12.535 12.2251C12.535 11.9985 12.5776 11.7742 12.6604 11.5649C12.7432 11.3556 12.8646 11.1654 13.0177 11.0052C13.1707 10.845 13.3524 10.7179 13.5523 10.6313C13.7523 10.5446 13.9666 10.5 14.183 10.5ZM14.183 5.32463H3.47181C3.18842 5.32463 2.91005 5.37557 2.64787 5.47262V5.10986C2.64787 4.67772 2.95355 4.312 3.35563 4.25593L14.183 2.84996V5.32463ZM14.2457 12.5552C14.2043 12.4505 14.183 12.3383 14.183 12.2251C14.183 12.1118 14.2043 11.9996 14.2457 11.895C14.2871 11.7903 14.3478 11.6953 14.4243 11.6152C14.5008 11.5351 14.5916 11.4715 14.6916 11.4282C14.7916 11.3848 14.8987 11.3625 15.0069 11.3625C15.1151 11.3625 15.2222 11.3848 15.3222 11.4282C15.4222 11.4715 15.513 11.5351 15.5895 11.6152C15.666 11.6953 15.7267 11.7903 15.7681 11.895C15.8095 11.9996 15.8308 12.1118 15.8308 12.2251C15.8308 12.3383 15.8095 12.4505 15.7681 12.5552C15.7267 12.6598 15.666 12.7549 15.5895 12.835C15.513 12.9151 15.4222 12.9786 15.3222 13.022C15.2222 13.0653 15.1151 13.0876 15.0069 13.0876C14.8987 13.0876 14.7916 13.0653 14.6916 13.022C14.5916 12.9786 14.5008 12.9151 14.4243 12.835C14.3478 12.7549 14.2871 12.6598 14.2457 12.5552Z"
    />
</svg>