<?xml version="1.0" encoding="UTF-8"?>
<!DOCTYPE svg PUBLIC "-//W3C//DTD SVG 1.1//EN" "http://www.w3.org/Graphics/SVG/1.1/DTD/svg11.dtd">
<svg xmlns="http://www.w3.org/2000/svg" version="1.1" width="128px" height="128px" style="shape-rendering:geometricPrecision; text-rendering:geometricPrecision; image-rendering:optimizeQuality; fill-rule:evenodd; clip-rule:evenodd" xmlns:xlink="http://www.w3.org/1999/xlink">
<g><path style="opacity:1" fill="#fafcfb" d="M -0.5,-0.5 C 7.5,-0.5 15.5,-0.5 23.5,-0.5C 10.5,2.5 2.5,10.5 -0.5,23.5C -0.5,15.5 -0.5,7.5 -0.5,-0.5 Z"/></g>
<g><path style="opacity:1" fill="#0fc283" d="M 23.5,-0.5 C 48.8333,-0.5 74.1667,-0.5 99.5,-0.5C 114.447,0.97065 123.78,8.97065 127.5,23.5C 127.5,48.5 127.5,73.5 127.5,98.5C 126.304,116.029 116.97,125.696 99.5,127.5C 74.1667,127.5 48.8333,127.5 23.5,127.5C 8.66235,123.491 0.662346,113.824 -0.5,98.5C -0.5,73.5 -0.5,48.5 -0.5,23.5C 2.5,10.5 10.5,2.5 23.5,-0.5 Z"/></g>
<g><path style="opacity:1" fill="#f8fbfa" d="M 99.5,-0.5 C 108.833,-0.5 118.167,-0.5 127.5,-0.5C 127.5,7.5 127.5,15.5 127.5,23.5C 123.78,8.97065 114.447,0.97065 99.5,-0.5 Z"/></g>
<g><path style="opacity:1" fill="#fbfdfd" d="M 43.5,24.5 C 59.9975,22.4908 74.1641,27.1574 86,38.5C 85.956,36.7215 85.2893,35.0548 84,33.5C 83.0032,26.1671 86.1699,23.3338 93.5,25C 102.025,35.386 104.858,47.2193 102,60.5C 100.004,70.3255 95.5039,78.8255 88.5,86C 90.8215,85.1133 93.3215,84.2799 96,83.5C 100.212,83.7121 102.379,85.8787 102.5,90C 102.646,92.0342 101.98,93.7009 100.5,95C 84.5111,104.156 68.1778,104.823 51.5,97C 47.9084,94.2865 44.4084,91.4532 41,88.5C 41.044,90.2785 41.7107,91.9452 43,93.5C 43.517,102.31 39.8503,104.644 32,100.5C 22.8438,84.5111 22.1771,68.1778 30,51.5C 32.7135,47.9084 35.5468,44.4084 38.5,41C 36.7215,41.044 35.0548,41.7107 33.5,43C 26.1671,43.9968 23.3338,40.8301 25,33.5C 30.5334,28.9821 36.7,25.9821 43.5,24.5 Z"/></g>
<g><path style="opacity:1" fill="#11c284" d="M 58.5,43.5 C 77.8194,43.3128 85.6527,52.6462 82,71.5C 74.5026,83.5845 64.336,86.4178 51.5,80C 44.779,73.9642 42.279,66.4642 44,57.5C 46.774,50.5569 51.6073,45.8903 58.5,43.5 Z"/></g>
<g><path style="opacity:1" fill="#f7fcfb" d="M 61.5,55.5 C 66.2702,56.2608 69.6036,58.9275 71.5,63.5C 66.1667,74.1667 60.8333,74.1667 55.5,63.5C 57.1063,60.5573 59.1063,57.8906 61.5,55.5 Z"/></g>
<g><path style="opacity:1" fill="#f7fbf9" d="M 127.5,98.5 C 127.5,108.167 127.5,117.833 127.5,127.5C 118.167,127.5 108.833,127.5 99.5,127.5C 116.97,125.696 126.304,116.029 127.5,98.5 Z"/></g>
<g><path style="opacity:1" fill="#f8fbfa" d="M -0.5,98.5 C 0.662346,113.824 8.66235,123.491 23.5,127.5C 15.5,127.5 7.5,127.5 -0.5,127.5C -0.5,117.833 -0.5,108.167 -0.5,98.5 Z"/></g>
</svg>
