<?xml version="1.0" encoding="UTF-8"?>
<!DOCTYPE svg PUBLIC "-//W3C//DTD SVG 1.1//EN" "http://www.w3.org/Graphics/SVG/1.1/DTD/svg11.dtd">
<svg xmlns="http://www.w3.org/2000/svg" version="1.1" width="144px" height="144px" style="shape-rendering:geometricPrecision; text-rendering:geometricPrecision; image-rendering:optimizeQuality; fill-rule:evenodd; clip-rule:evenodd" xmlns:xlink="http://www.w3.org/1999/xlink">
<g><path style="opacity:0.995" fill="#000000" d="M 20.5,-0.5 C 54.5,-0.5 88.5,-0.5 122.5,-0.5C 133.167,2.83333 140.167,9.83333 143.5,20.5C 143.5,54.5 143.5,88.5 143.5,122.5C 140.167,133.167 133.167,140.167 122.5,143.5C 88.5,143.5 54.5,143.5 20.5,143.5C 9.83333,140.167 2.83333,133.167 -0.5,122.5C -0.5,88.5 -0.5,54.5 -0.5,20.5C 2.83333,9.83333 9.83333,2.83333 20.5,-0.5 Z"/></g>
<g><path style="opacity:1" fill="#f6f6f6" d="M 29.5,28.5 C 38.7506,28.1822 47.9172,28.5155 57,29.5C 57.817,38.7447 57.6503,47.9113 56.5,57C 47.2553,57.817 38.0887,57.6503 29,56.5C 28.1954,47.0891 28.362,37.7557 29.5,28.5 Z"/></g>
<g><path style="opacity:1" fill="#f6f6f6" d="M 86.5,28.5 C 95.7506,28.1822 104.917,28.5155 114,29.5C 114.817,38.7447 114.65,47.9113 113.5,57C 104.255,57.817 95.0887,57.6503 86,56.5C 85.1954,47.0891 85.362,37.7557 86.5,28.5 Z"/></g>
<g><path style="opacity:1" fill="#fefefe" d="M 57.5,57.5 C 66.8333,57.5 76.1667,57.5 85.5,57.5C 85.5,66.8333 85.5,76.1667 85.5,85.5C 76.1667,85.5 66.8333,85.5 57.5,85.5C 57.5,76.1667 57.5,66.8333 57.5,57.5 Z"/></g>
<g><path style="opacity:1" fill="#f6f6f6" d="M 29.5,85.5 C 38.7506,85.1822 47.9172,85.5155 57,86.5C 57.817,95.7447 57.6503,104.911 56.5,114C 47.2553,114.817 38.0887,114.65 29,113.5C 28.1954,104.089 28.362,94.7557 29.5,85.5 Z"/></g>
<g><path style="opacity:1" fill="#f6f6f6" d="M 86.5,85.5 C 95.7506,85.1822 104.917,85.5155 114,86.5C 114.817,95.7447 114.65,104.911 113.5,114C 104.255,114.817 95.0887,114.65 86,113.5C 85.1954,104.089 85.362,94.7557 86.5,85.5 Z"/></g>
</svg>
